G04 Layer_Color=2752767*
%FSLAX43Y43*%
%MOMM*%
G71*
G01*
G75*
%ADD12C,0.127*%
%ADD26C,0.169*%
D12*
X43815Y57531D02*
Y58547D01*
X44831D01*
Y57531D01*
X43815D01*
X46355D02*
Y58547D01*
X47371D01*
Y57531D01*
X46355D01*
X48895D02*
Y58547D01*
X49911D01*
Y57531D01*
X48895D01*
X43815Y54991D02*
Y56007D01*
X44831D01*
Y54991D01*
X43815D01*
X46355D02*
Y56007D01*
X47371D01*
Y54991D01*
X46355D01*
X48895D02*
Y56007D01*
X49911D01*
Y54991D01*
X48895D01*
X43815Y52451D02*
Y53467D01*
X44831D01*
Y52451D01*
X43815D01*
X46355D02*
Y53467D01*
X47371D01*
Y52451D01*
X46355D01*
X48895D02*
Y53467D01*
X49911D01*
Y52451D01*
X48895D01*
X43815Y49911D02*
Y50927D01*
X44831D01*
Y49911D01*
X43815D01*
X46355D02*
Y50927D01*
X47371D01*
Y49911D01*
X46355D01*
X48895D02*
Y50927D01*
X49911D01*
Y49911D01*
X48895D01*
X43815Y47371D02*
Y48387D01*
X44831D01*
Y47371D01*
X43815D01*
X46355D02*
Y48387D01*
X47371D01*
Y47371D01*
X46355D01*
X48895D02*
Y48387D01*
X49911D01*
Y47371D01*
X48895D01*
X43815Y44831D02*
Y45847D01*
X44831D01*
Y44831D01*
X43815D01*
X46355D02*
Y45847D01*
X47371D01*
Y44831D01*
X46355D01*
X48895D02*
Y45847D01*
X49911D01*
Y44831D01*
X48895D01*
X43815Y42291D02*
Y43307D01*
X44831D01*
Y42291D01*
X43815D01*
X46355D02*
Y43307D01*
X47371D01*
Y42291D01*
X46355D01*
X48895D02*
Y43307D01*
X49911D01*
Y42291D01*
X48895D01*
X43815Y39751D02*
Y40767D01*
X44831D01*
Y39751D01*
X43815D01*
X46355D02*
Y40767D01*
X47371D01*
Y39751D01*
X46355D01*
X48895D02*
Y40767D01*
X49911D01*
Y39751D01*
X48895D01*
X43815Y37211D02*
Y38227D01*
X44831D01*
Y37211D01*
X43815D01*
X46355D02*
Y38227D01*
X47371D01*
Y37211D01*
X46355D01*
X48895D02*
Y38227D01*
X49911D01*
Y37211D01*
X48895D01*
X43815Y34671D02*
Y35687D01*
X44831D01*
Y34671D01*
X43815D01*
X46355D02*
Y35687D01*
X47371D01*
Y34671D01*
X46355D01*
X48895D02*
Y35687D01*
X49911D01*
Y34671D01*
X48895D01*
Y32131D02*
Y33147D01*
X49911D01*
Y32131D01*
X48895D01*
X46355D02*
Y33147D01*
X47371D01*
Y32131D01*
X46355D01*
X43815D02*
Y33147D01*
X44831D01*
Y32131D01*
X43815D01*
D26*
X55372Y51435D02*
G03*
X55372Y51435I-508J0D01*
G01*
Y37846D02*
G03*
X55372Y37846I-508J0D01*
G01*
Y53594D02*
G03*
X55372Y53594I-508J0D01*
G01*
M02*
