G04 Layer_Color=16711935*
%FSLAX43Y43*%
%MOMM*%
G71*
G01*
G75*
%ADD18P,2.254X8X292.5*%
%ADD19C,1.473*%
G04:AMPARAMS|DCode=20|XSize=3.023mm|YSize=1.219mm|CornerRadius=0.61mm|HoleSize=0mm|Usage=FLASHONLY|Rotation=180.000|XOffset=0mm|YOffset=0mm|HoleType=Round|Shape=RoundedRectangle|*
%AMROUNDEDRECTD20*
21,1,3.023,0.000,0,0,180.0*
21,1,1.803,1.219,0,0,180.0*
1,1,1.219,-0.902,0.000*
1,1,1.219,0.902,0.000*
1,1,1.219,0.902,0.000*
1,1,1.219,-0.902,0.000*
%
%ADD20ROUNDEDRECTD20*%
G04:AMPARAMS|DCode=21|XSize=0.813mm|YSize=1.905mm|CornerRadius=0.406mm|HoleSize=0mm|Usage=FLASHONLY|Rotation=270.000|XOffset=0mm|YOffset=0mm|HoleType=Round|Shape=RoundedRectangle|*
%AMROUNDEDRECTD21*
21,1,0.813,1.092,0,0,270.0*
21,1,0.000,1.905,0,0,270.0*
1,1,0.813,-0.546,0.000*
1,1,0.813,-0.546,0.000*
1,1,0.813,0.546,0.000*
1,1,0.813,0.546,0.000*
%
%ADD21ROUNDEDRECTD21*%
D18*
X44323Y58039D02*
D03*
X46863D02*
D03*
X49403D02*
D03*
X44323Y55499D02*
D03*
X46863D02*
D03*
X49403D02*
D03*
X44323Y52959D02*
D03*
X46863D02*
D03*
X49403D02*
D03*
X44323Y50419D02*
D03*
X46863D02*
D03*
X49403D02*
D03*
X44323Y47879D02*
D03*
X46863D02*
D03*
X49403D02*
D03*
X44323Y45339D02*
D03*
X46863D02*
D03*
X49403D02*
D03*
X44323Y42799D02*
D03*
X46863D02*
D03*
X49403D02*
D03*
X44323Y40259D02*
D03*
X46863D02*
D03*
X49403D02*
D03*
X44323Y37719D02*
D03*
X46863D02*
D03*
X49403D02*
D03*
X44323Y35179D02*
D03*
X46863D02*
D03*
X49403D02*
D03*
Y32639D02*
D03*
X46863D02*
D03*
X44323D02*
D03*
D19*
X54864Y51435D02*
D03*
Y37846D02*
D03*
Y53594D02*
D03*
D20*
X55612Y34639D02*
D03*
Y56064D02*
D03*
D21*
X52462Y36589D02*
D03*
Y39089D02*
D03*
Y40339D02*
D03*
Y41589D02*
D03*
Y42849D02*
D03*
Y44094D02*
D03*
Y45364D02*
D03*
Y37839D02*
D03*
Y54108D02*
D03*
Y52864D02*
D03*
Y51594D02*
D03*
Y50349D02*
D03*
Y49089D02*
D03*
Y47839D02*
D03*
Y46589D02*
D03*
M02*
