G04 Layer_Color=65535*
%FSLAX43Y43*%
%MOMM*%
G71*
G01*
G75*
%ADD17C,0.254*%
D17*
X51689Y43053D02*
X51435Y42799D01*
Y42291D01*
X51689Y42037D01*
X51943D01*
X52197Y42291D01*
Y42799D01*
X52451Y43053D01*
X52705D01*
X52959Y42799D01*
Y42291D01*
X52705Y42037D01*
X52959Y44322D02*
Y43814D01*
X52705Y43561D01*
X52197D01*
X51943Y43814D01*
Y44322D01*
X52197Y44576D01*
X52451D01*
Y43561D01*
X51943Y45084D02*
X52959D01*
X52451D01*
X52197Y45338D01*
X51943Y45592D01*
Y45846D01*
Y46608D02*
X52959Y47115D01*
X51943Y47623D01*
X52959Y48385D02*
Y48893D01*
X52705Y49147D01*
X52197D01*
X51943Y48893D01*
Y48385D01*
X52197Y48131D01*
X52705D01*
X52959Y48385D01*
X34036Y33909D02*
X34544D01*
X34290D01*
Y32385D01*
X34036D01*
X34544D01*
X36067Y33909D02*
X35560D01*
X35306Y33655D01*
Y32639D01*
X35560Y32385D01*
X36067D01*
X36321Y32639D01*
Y33655D01*
X36067Y33909D01*
X36829Y33147D02*
X37845D01*
X39368Y33655D02*
X39114Y33909D01*
X38607D01*
X38353Y33655D01*
Y32639D01*
X38607Y32385D01*
X39114D01*
X39368Y32639D01*
X39876Y33909D02*
Y32385D01*
Y33147D01*
X40892D01*
Y33909D01*
Y32385D01*
X41400D02*
X41907D01*
X41654D01*
Y33909D01*
X41400Y33655D01*
X34036Y36410D02*
X34544D01*
X34290D01*
Y34887D01*
X34036D01*
X34544D01*
X36067Y36410D02*
X35560D01*
X35306Y36156D01*
Y35141D01*
X35560Y34887D01*
X36067D01*
X36321Y35141D01*
Y36156D01*
X36067Y36410D01*
X36829Y35649D02*
X37845D01*
X39368Y36156D02*
X39114Y36410D01*
X38607D01*
X38353Y36156D01*
Y35141D01*
X38607Y34887D01*
X39114D01*
X39368Y35141D01*
X39876Y36410D02*
Y34887D01*
Y35649D01*
X40892D01*
Y36410D01*
Y34887D01*
X42415D02*
X41400D01*
X42415Y35903D01*
Y36156D01*
X42161Y36410D01*
X41654D01*
X41400Y36156D01*
X34036Y38912D02*
X34544D01*
X34290D01*
Y37389D01*
X34036D01*
X34544D01*
X36067Y38912D02*
X35560D01*
X35306Y38658D01*
Y37643D01*
X35560Y37389D01*
X36067D01*
X36321Y37643D01*
Y38658D01*
X36067Y38912D01*
X36829Y38151D02*
X37845D01*
X39368Y38658D02*
X39114Y38912D01*
X38607D01*
X38353Y38658D01*
Y37643D01*
X38607Y37389D01*
X39114D01*
X39368Y37643D01*
X39876Y38912D02*
Y37389D01*
Y38151D01*
X40892D01*
Y38912D01*
Y37389D01*
X41400Y38658D02*
X41654Y38912D01*
X42161D01*
X42415Y38658D01*
Y38404D01*
X42161Y38151D01*
X41907D01*
X42161D01*
X42415Y37897D01*
Y37643D01*
X42161Y37389D01*
X41654D01*
X41400Y37643D01*
X34036Y41414D02*
X34544D01*
X34290D01*
Y39891D01*
X34036D01*
X34544D01*
X36067Y41414D02*
X35560D01*
X35306Y41160D01*
Y40145D01*
X35560Y39891D01*
X36067D01*
X36321Y40145D01*
Y41160D01*
X36067Y41414D01*
X36829Y40652D02*
X37845D01*
X39368Y41160D02*
X39114Y41414D01*
X38607D01*
X38353Y41160D01*
Y40145D01*
X38607Y39891D01*
X39114D01*
X39368Y40145D01*
X39876Y41414D02*
Y39891D01*
Y40652D01*
X40892D01*
Y41414D01*
Y39891D01*
X42161D02*
Y41414D01*
X41400Y40652D01*
X42415D01*
X34036Y43916D02*
X34544D01*
X34290D01*
Y42393D01*
X34036D01*
X34544D01*
X36067Y43916D02*
X35560D01*
X35306Y43662D01*
Y42647D01*
X35560Y42393D01*
X36067D01*
X36321Y42647D01*
Y43662D01*
X36067Y43916D01*
X36829Y43154D02*
X37845D01*
X39368Y43662D02*
X39114Y43916D01*
X38607D01*
X38353Y43662D01*
Y42647D01*
X38607Y42393D01*
X39114D01*
X39368Y42647D01*
X39876Y43916D02*
Y42393D01*
Y43154D01*
X40892D01*
Y43916D01*
Y42393D01*
X42415Y43916D02*
X41400D01*
Y43154D01*
X41907Y43408D01*
X42161D01*
X42415Y43154D01*
Y42647D01*
X42161Y42393D01*
X41654D01*
X41400Y42647D01*
X34036Y46418D02*
X34544D01*
X34290D01*
Y44895D01*
X34036D01*
X34544D01*
X36067Y46418D02*
X35560D01*
X35306Y46164D01*
Y45148D01*
X35560Y44895D01*
X36067D01*
X36321Y45148D01*
Y46164D01*
X36067Y46418D01*
X36829Y45656D02*
X37845D01*
X39368Y46164D02*
X39114Y46418D01*
X38607D01*
X38353Y46164D01*
Y45148D01*
X38607Y44895D01*
X39114D01*
X39368Y45148D01*
X39876Y46418D02*
Y44895D01*
Y45656D01*
X40892D01*
Y46418D01*
Y44895D01*
X42415Y46418D02*
X41907Y46164D01*
X41400Y45656D01*
Y45148D01*
X41654Y44895D01*
X42161D01*
X42415Y45148D01*
Y45402D01*
X42161Y45656D01*
X41400D01*
X34036Y48920D02*
X34544D01*
X34290D01*
Y47396D01*
X34036D01*
X34544D01*
X36067Y48920D02*
X35560D01*
X35306Y48666D01*
Y47650D01*
X35560Y47396D01*
X36067D01*
X36321Y47650D01*
Y48666D01*
X36067Y48920D01*
X36829Y48158D02*
X37845D01*
X39368Y48666D02*
X39114Y48920D01*
X38607D01*
X38353Y48666D01*
Y47650D01*
X38607Y47396D01*
X39114D01*
X39368Y47650D01*
X39876Y48920D02*
Y47396D01*
Y48158D01*
X40892D01*
Y48920D01*
Y47396D01*
X41400Y48920D02*
X42415D01*
Y48666D01*
X41400Y47650D01*
Y47396D01*
X34036Y51422D02*
X34544D01*
X34290D01*
Y49898D01*
X34036D01*
X34544D01*
X36067Y51422D02*
X35560D01*
X35306Y51168D01*
Y50152D01*
X35560Y49898D01*
X36067D01*
X36321Y50152D01*
Y51168D01*
X36067Y51422D01*
X36829Y50660D02*
X37845D01*
X39368Y51168D02*
X39114Y51422D01*
X38607D01*
X38353Y51168D01*
Y50152D01*
X38607Y49898D01*
X39114D01*
X39368Y50152D01*
X39876Y51422D02*
Y49898D01*
Y50660D01*
X40892D01*
Y51422D01*
Y49898D01*
X41400Y51168D02*
X41654Y51422D01*
X42161D01*
X42415Y51168D01*
Y50914D01*
X42161Y50660D01*
X42415Y50406D01*
Y50152D01*
X42161Y49898D01*
X41654D01*
X41400Y50152D01*
Y50406D01*
X41654Y50660D01*
X41400Y50914D01*
Y51168D01*
X41654Y50660D02*
X42161D01*
X35052Y53924D02*
X34036D01*
Y53162D01*
X34544D01*
X34036D01*
Y52400D01*
X35560D02*
Y53924D01*
X36067Y53416D01*
X36575Y53924D01*
Y52400D01*
X37083Y53924D02*
Y52654D01*
X37337Y52400D01*
X37845D01*
X38099Y52654D01*
Y53924D01*
X39622Y53670D02*
X39368Y53924D01*
X38860D01*
X38607Y53670D01*
Y52654D01*
X38860Y52400D01*
X39368D01*
X39622Y52654D01*
X40130Y53924D02*
Y52400D01*
Y53162D01*
X41146D01*
Y53924D01*
Y52400D01*
X42669D02*
X41654D01*
X42669Y53416D01*
Y53670D01*
X42415Y53924D01*
X41907D01*
X41654Y53670D01*
X35052Y56426D02*
X34036D01*
Y55664D01*
X34544D01*
X34036D01*
Y54902D01*
X35560D02*
Y56426D01*
X36067Y55918D01*
X36575Y56426D01*
Y54902D01*
X37083Y56426D02*
Y55156D01*
X37337Y54902D01*
X37845D01*
X38099Y55156D01*
Y56426D01*
X39622Y56172D02*
X39368Y56426D01*
X38860D01*
X38607Y56172D01*
Y55156D01*
X38860Y54902D01*
X39368D01*
X39622Y55156D01*
X40130Y56426D02*
Y54902D01*
Y55664D01*
X41146D01*
Y56426D01*
Y54902D01*
X41654D02*
X42161D01*
X41907D01*
Y56426D01*
X41654Y56172D01*
X34036Y57404D02*
Y58928D01*
X34798D01*
X35052Y58674D01*
Y58166D01*
X34798Y57912D01*
X34036D01*
X35560Y57404D02*
Y58928D01*
X36321D01*
X36575Y58674D01*
Y58166D01*
X36321Y57912D01*
X35560D01*
X37083Y57404D02*
Y58928D01*
X37591Y58420D01*
X38099Y58928D01*
Y57404D01*
X40130D02*
Y58928D01*
X40892D01*
X41146Y58674D01*
Y58166D01*
X40892Y57912D01*
X40130D01*
X40638D02*
X41146Y57404D01*
X41654Y58928D02*
X42669Y57404D01*
Y58928D02*
X41654Y57404D01*
X43180Y30607D02*
X44196D01*
X46227D02*
X47243D01*
X46735Y31115D02*
Y30099D01*
X50290Y31115D02*
X50036Y31369D01*
X49528D01*
X49274Y31115D01*
Y30861D01*
X49528Y30607D01*
X50036D01*
X50290Y30353D01*
Y30099D01*
X50036Y29845D01*
X49528D01*
X49274Y30099D01*
M02*
