G04 Layer_Color=32896*
%FSLAX43Y43*%
%MOMM*%
G71*
G01*
G75*
%ADD17C,0.254*%
%ADD22C,0.305*%
G36*
X52197Y54694D02*
X51843D01*
Y55048D01*
X52197D01*
Y54694D01*
D02*
G37*
D17*
X51617Y56131D02*
X51109D01*
X51363D01*
Y57654D01*
X51617Y57400D01*
X42545Y33655D02*
X42037D01*
X42291D01*
Y32131D01*
X42545D01*
X42037D01*
X40514Y33655D02*
X41021D01*
X41275Y33401D01*
Y32385D01*
X41021Y32131D01*
X40514D01*
X40260Y32385D01*
Y33401D01*
X40514Y33655D01*
X39752Y32893D02*
X38736D01*
X37213Y33401D02*
X37467Y33655D01*
X37974D01*
X38228Y33401D01*
Y32385D01*
X37974Y32131D01*
X37467D01*
X37213Y32385D01*
X36705Y33655D02*
Y32131D01*
Y32893D01*
X35689D01*
Y33655D01*
Y32131D01*
X35181D02*
X34674D01*
X34927D01*
Y33655D01*
X35181Y33401D01*
X42545Y36156D02*
X42037D01*
X42291D01*
Y34633D01*
X42545D01*
X42037D01*
X40514Y36156D02*
X41021D01*
X41275Y35902D01*
Y34887D01*
X41021Y34633D01*
X40514D01*
X40260Y34887D01*
Y35902D01*
X40514Y36156D01*
X39752Y35395D02*
X38736D01*
X37213Y35902D02*
X37467Y36156D01*
X37974D01*
X38228Y35902D01*
Y34887D01*
X37974Y34633D01*
X37467D01*
X37213Y34887D01*
X36705Y36156D02*
Y34633D01*
Y35395D01*
X35689D01*
Y36156D01*
Y34633D01*
X34166D02*
X35181D01*
X34166Y35649D01*
Y35902D01*
X34420Y36156D01*
X34927D01*
X35181Y35902D01*
X42545Y38658D02*
X42037D01*
X42291D01*
Y37135D01*
X42545D01*
X42037D01*
X40514Y38658D02*
X41021D01*
X41275Y38404D01*
Y37389D01*
X41021Y37135D01*
X40514D01*
X40260Y37389D01*
Y38404D01*
X40514Y38658D01*
X39752Y37897D02*
X38736D01*
X37213Y38404D02*
X37467Y38658D01*
X37974D01*
X38228Y38404D01*
Y37389D01*
X37974Y37135D01*
X37467D01*
X37213Y37389D01*
X36705Y38658D02*
Y37135D01*
Y37897D01*
X35689D01*
Y38658D01*
Y37135D01*
X35181Y38404D02*
X34927Y38658D01*
X34420D01*
X34166Y38404D01*
Y38150D01*
X34420Y37897D01*
X34674D01*
X34420D01*
X34166Y37643D01*
Y37389D01*
X34420Y37135D01*
X34927D01*
X35181Y37389D01*
X42545Y41160D02*
X42037D01*
X42291D01*
Y39637D01*
X42545D01*
X42037D01*
X40514Y41160D02*
X41021D01*
X41275Y40906D01*
Y39891D01*
X41021Y39637D01*
X40514D01*
X40260Y39891D01*
Y40906D01*
X40514Y41160D01*
X39752Y40398D02*
X38736D01*
X37213Y40906D02*
X37467Y41160D01*
X37974D01*
X38228Y40906D01*
Y39891D01*
X37974Y39637D01*
X37467D01*
X37213Y39891D01*
X36705Y41160D02*
Y39637D01*
Y40398D01*
X35689D01*
Y41160D01*
Y39637D01*
X34420D02*
Y41160D01*
X35181Y40398D01*
X34166D01*
X42545Y43662D02*
X42037D01*
X42291D01*
Y42139D01*
X42545D01*
X42037D01*
X40514Y43662D02*
X41021D01*
X41275Y43408D01*
Y42393D01*
X41021Y42139D01*
X40514D01*
X40260Y42393D01*
Y43408D01*
X40514Y43662D01*
X39752Y42900D02*
X38736D01*
X37213Y43408D02*
X37467Y43662D01*
X37974D01*
X38228Y43408D01*
Y42393D01*
X37974Y42139D01*
X37467D01*
X37213Y42393D01*
X36705Y43662D02*
Y42139D01*
Y42900D01*
X35689D01*
Y43662D01*
Y42139D01*
X34166Y43662D02*
X35181D01*
Y42900D01*
X34674Y43154D01*
X34420D01*
X34166Y42900D01*
Y42393D01*
X34420Y42139D01*
X34927D01*
X35181Y42393D01*
X42545Y46164D02*
X42037D01*
X42291D01*
Y44640D01*
X42545D01*
X42037D01*
X40514Y46164D02*
X41021D01*
X41275Y45910D01*
Y44894D01*
X41021Y44640D01*
X40514D01*
X40260Y44894D01*
Y45910D01*
X40514Y46164D01*
X39752Y45402D02*
X38736D01*
X37213Y45910D02*
X37467Y46164D01*
X37974D01*
X38228Y45910D01*
Y44894D01*
X37974Y44640D01*
X37467D01*
X37213Y44894D01*
X36705Y46164D02*
Y44640D01*
Y45402D01*
X35689D01*
Y46164D01*
Y44640D01*
X34166Y46164D02*
X34674Y45910D01*
X35181Y45402D01*
Y44894D01*
X34927Y44640D01*
X34420D01*
X34166Y44894D01*
Y45148D01*
X34420Y45402D01*
X35181D01*
X42545Y48666D02*
X42037D01*
X42291D01*
Y47142D01*
X42545D01*
X42037D01*
X40514Y48666D02*
X41021D01*
X41275Y48412D01*
Y47396D01*
X41021Y47142D01*
X40514D01*
X40260Y47396D01*
Y48412D01*
X40514Y48666D01*
X39752Y47904D02*
X38736D01*
X37213Y48412D02*
X37467Y48666D01*
X37974D01*
X38228Y48412D01*
Y47396D01*
X37974Y47142D01*
X37467D01*
X37213Y47396D01*
X36705Y48666D02*
Y47142D01*
Y47904D01*
X35689D01*
Y48666D01*
Y47142D01*
X35181Y48666D02*
X34166D01*
Y48412D01*
X35181Y47396D01*
Y47142D01*
X42545Y51168D02*
X42037D01*
X42291D01*
Y49644D01*
X42545D01*
X42037D01*
X40514Y51168D02*
X41021D01*
X41275Y50914D01*
Y49898D01*
X41021Y49644D01*
X40514D01*
X40260Y49898D01*
Y50914D01*
X40514Y51168D01*
X39752Y50406D02*
X38736D01*
X37213Y50914D02*
X37467Y51168D01*
X37974D01*
X38228Y50914D01*
Y49898D01*
X37974Y49644D01*
X37467D01*
X37213Y49898D01*
X36705Y51168D02*
Y49644D01*
Y50406D01*
X35689D01*
Y51168D01*
Y49644D01*
X35181Y50914D02*
X34927Y51168D01*
X34420D01*
X34166Y50914D01*
Y50660D01*
X34420Y50406D01*
X34166Y50152D01*
Y49898D01*
X34420Y49644D01*
X34927D01*
X35181Y49898D01*
Y50152D01*
X34927Y50406D01*
X35181Y50660D01*
Y50914D01*
X34927Y50406D02*
X34420D01*
X41529Y53670D02*
X42545D01*
Y52908D01*
X42037D01*
X42545D01*
Y52146D01*
X41021D02*
Y53670D01*
X40514Y53162D01*
X40006Y53670D01*
Y52146D01*
X39498Y53670D02*
Y52400D01*
X39244Y52146D01*
X38736D01*
X38482Y52400D01*
Y53670D01*
X36959Y53416D02*
X37213Y53670D01*
X37721D01*
X37974Y53416D01*
Y52400D01*
X37721Y52146D01*
X37213D01*
X36959Y52400D01*
X36451Y53670D02*
Y52146D01*
Y52908D01*
X35435D01*
Y53670D01*
Y52146D01*
X33912D02*
X34927D01*
X33912Y53162D01*
Y53416D01*
X34166Y53670D01*
X34674D01*
X34927Y53416D01*
X41529Y56172D02*
X42545D01*
Y55410D01*
X42037D01*
X42545D01*
Y54648D01*
X41021D02*
Y56172D01*
X40514Y55664D01*
X40006Y56172D01*
Y54648D01*
X39498Y56172D02*
Y54902D01*
X39244Y54648D01*
X38736D01*
X38482Y54902D01*
Y56172D01*
X36959Y55918D02*
X37213Y56172D01*
X37721D01*
X37974Y55918D01*
Y54902D01*
X37721Y54648D01*
X37213D01*
X36959Y54902D01*
X36451Y56172D02*
Y54648D01*
Y55410D01*
X35435D01*
Y56172D01*
Y54648D01*
X34927D02*
X34420D01*
X34674D01*
Y56172D01*
X34927Y55918D01*
X42545Y57150D02*
Y58674D01*
X41783D01*
X41529Y58420D01*
Y57912D01*
X41783Y57658D01*
X42545D01*
X41021Y57150D02*
Y58674D01*
X40260D01*
X40006Y58420D01*
Y57912D01*
X40260Y57658D01*
X41021D01*
X39498Y57150D02*
Y58674D01*
X38990Y58166D01*
X38482Y58674D01*
Y57150D01*
X36451D02*
Y58674D01*
X35689D01*
X35435Y58420D01*
Y57912D01*
X35689Y57658D01*
X36451D01*
X35943D02*
X35435Y57150D01*
X34927Y58674D02*
X33912Y57150D01*
Y58674D02*
X34927Y57150D01*
X49276Y31115D02*
X49530Y31369D01*
X50038D01*
X50292Y31115D01*
Y30861D01*
X50038Y30607D01*
X49530D01*
X49276Y30353D01*
Y30099D01*
X49530Y29845D01*
X50038D01*
X50292Y30099D01*
X47245Y30607D02*
X46229D01*
X46737Y31115D02*
Y30099D01*
X44198Y30607D02*
X43182D01*
D22*
X52462Y56394D02*
X57277D01*
X52462Y54794D02*
Y56394D01*
Y34289D02*
Y35904D01*
Y34289D02*
X57277D01*
Y56394D02*
X57287Y34289D01*
M02*
