G04 Layer_Color=128*
%FSLAX43Y43*%
%MOMM*%
G71*
G01*
G75*
%ADD12C,0.127*%
D12*
X43815Y58039D02*
X44831D01*
X44323Y57531D02*
Y58547D01*
X46355Y58039D02*
X47371D01*
X46863Y57531D02*
Y58547D01*
X48895Y58039D02*
X49911D01*
X49403Y57531D02*
Y58547D01*
X43815Y55499D02*
X44831D01*
X44323Y54991D02*
Y56007D01*
X46355Y55499D02*
X47371D01*
X46863Y54991D02*
Y56007D01*
X48895Y55499D02*
X49911D01*
X49403Y54991D02*
Y56007D01*
X43815Y52959D02*
X44831D01*
X44323Y52451D02*
Y53467D01*
X46355Y52959D02*
X47371D01*
X46863Y52451D02*
Y53467D01*
X48895Y52959D02*
X49911D01*
X49403Y52451D02*
Y53467D01*
X43815Y50419D02*
X44831D01*
X44323Y49911D02*
Y50927D01*
X46355Y50419D02*
X47371D01*
X46863Y49911D02*
Y50927D01*
X48895Y50419D02*
X49911D01*
X49403Y49911D02*
Y50927D01*
X43815Y47879D02*
X44831D01*
X44323Y47371D02*
Y48387D01*
X46355Y47879D02*
X47371D01*
X46863Y47371D02*
Y48387D01*
X48895Y47879D02*
X49911D01*
X49403Y47371D02*
Y48387D01*
X43815Y45339D02*
X44831D01*
X44323Y44831D02*
Y45847D01*
X46355Y45339D02*
X47371D01*
X46863Y44831D02*
Y45847D01*
X48895Y45339D02*
X49911D01*
X49403Y44831D02*
Y45847D01*
X43815Y42799D02*
X44831D01*
X44323Y42291D02*
Y43307D01*
X46355Y42799D02*
X47371D01*
X46863Y42291D02*
Y43307D01*
X48895Y42799D02*
X49911D01*
X49403Y42291D02*
Y43307D01*
X43815Y40259D02*
X44831D01*
X44323Y39751D02*
Y40767D01*
X46355Y40259D02*
X47371D01*
X46863Y39751D02*
Y40767D01*
X48895Y40259D02*
X49911D01*
X49403Y39751D02*
Y40767D01*
X43815Y37719D02*
X44831D01*
X44323Y37211D02*
Y38227D01*
X46355Y37719D02*
X47371D01*
X46863Y37211D02*
Y38227D01*
X48895Y37719D02*
X49911D01*
X49403Y37211D02*
Y38227D01*
X43815Y35179D02*
X44831D01*
X44323Y34671D02*
Y35687D01*
X46355Y35179D02*
X47371D01*
X46863Y34671D02*
Y35687D01*
X48895Y35179D02*
X49911D01*
X49403Y34671D02*
Y35687D01*
X48895Y32639D02*
X49911D01*
X49403Y32131D02*
Y33147D01*
X46355Y32639D02*
X47371D01*
X46863Y32131D02*
Y33147D01*
X43815Y32639D02*
X44831D01*
X44323Y32131D02*
Y33147D01*
X54508Y51435D02*
X55220D01*
X54864Y51079D02*
Y51791D01*
X54508Y37846D02*
X55220D01*
X54864Y37490D02*
Y38202D01*
X54508Y53594D02*
X55220D01*
X54864Y53238D02*
Y53950D01*
M02*
