G04 Layer_Physical_Order=2*
G04 Layer_Color=16711680*
%FSLAX43Y43*%
%MOMM*%
G71*
G01*
G75*
%ADD10C,0.200*%
%ADD11C,2.000*%
%ADD13P,2.034X8X292.5*%
%ADD14C,1.270*%
G04:AMPARAMS|DCode=15|XSize=2.819mm|YSize=1.016mm|CornerRadius=0.508mm|HoleSize=0mm|Usage=FLASHONLY|Rotation=180.000|XOffset=0mm|YOffset=0mm|HoleType=Round|Shape=RoundedRectangle|*
%AMROUNDEDRECTD15*
21,1,2.819,0.000,0,0,180.0*
21,1,1.803,1.016,0,0,180.0*
1,1,1.016,-0.902,0.000*
1,1,1.016,0.902,0.000*
1,1,1.016,0.902,0.000*
1,1,1.016,-0.902,0.000*
%
%ADD15ROUNDEDRECTD15*%
G04:AMPARAMS|DCode=16|XSize=0.61mm|YSize=1.702mm|CornerRadius=0.305mm|HoleSize=0mm|Usage=FLASHONLY|Rotation=270.000|XOffset=0mm|YOffset=0mm|HoleType=Round|Shape=RoundedRectangle|*
%AMROUNDEDRECTD16*
21,1,0.610,1.092,0,0,270.0*
21,1,0.000,1.702,0,0,270.0*
1,1,0.610,-0.546,0.000*
1,1,0.610,-0.546,0.000*
1,1,0.610,0.546,0.000*
1,1,0.610,0.546,0.000*
%
%ADD16ROUNDEDRECTD16*%
%ADD17C,0.254*%
G36*
X56769Y56909D02*
X56642Y56816D01*
X56514Y56833D01*
X54710D01*
X54511Y56806D01*
X54377Y56751D01*
X54887Y56241D01*
X54710Y56064D01*
X54887Y55887D01*
X54377Y55377D01*
X54511Y55322D01*
X54710Y55295D01*
X56514D01*
X56642Y55312D01*
X56769Y55219D01*
Y35484D01*
X56642Y35391D01*
X56514Y35408D01*
X54710D01*
X54511Y35381D01*
X54377Y35326D01*
X54887Y34816D01*
X54710Y34639D01*
X54887Y34462D01*
X54377Y33952D01*
X54511Y33897D01*
X54710Y33870D01*
X56514D01*
X56642Y33887D01*
X56769Y33794D01*
Y29718D01*
X33401D01*
Y61087D01*
X56769D01*
Y56909D01*
D02*
G37*
%LPC*%
G36*
X53008Y43364D02*
X51916D01*
X51719Y43325D01*
X51552Y43213D01*
X51440Y43046D01*
X51401Y42849D01*
X51421Y42749D01*
X50022Y41350D01*
X49973Y41399D01*
X48833D01*
X48263Y40829D01*
Y39689D01*
X48833Y39119D01*
X49574D01*
X49623Y39002D01*
X49480Y38859D01*
X48833D01*
X48263Y38289D01*
Y37149D01*
X48833Y36579D01*
X49973D01*
X50222Y36829D01*
X50340Y36780D01*
Y36587D01*
X50022Y36270D01*
X49973Y36319D01*
X48833D01*
X48263Y35749D01*
Y34609D01*
X48833Y34039D01*
X49973D01*
X50543Y34609D01*
Y35749D01*
X50494Y35798D01*
X50878Y36183D01*
X50999Y36142D01*
X51005Y36137D01*
Y34674D01*
X50042Y33710D01*
X49973Y33779D01*
X48833D01*
X48263Y33209D01*
Y32069D01*
X48833Y31499D01*
X49973D01*
X50543Y32069D01*
Y33209D01*
X50474Y33278D01*
X51527Y34331D01*
X51594Y34430D01*
X51617Y34547D01*
X51617Y34547D01*
Y35976D01*
X51744Y36054D01*
X51916Y36019D01*
X53008D01*
X53188Y36055D01*
X52831Y36412D01*
X53008Y36589D01*
X52831Y36766D01*
X53188Y37123D01*
X53008Y37159D01*
X51916D01*
X51766Y37129D01*
X51659Y37209D01*
X51661Y37273D01*
X51772Y37353D01*
X51916Y37324D01*
X53008D01*
X53205Y37364D01*
X53372Y37475D01*
X53413Y37536D01*
X54088Y37538D01*
X54135Y37425D01*
X54268Y37250D01*
X54443Y37117D01*
X54646Y37032D01*
X54864Y37004D01*
X55082Y37032D01*
X55285Y37117D01*
X55460Y37250D01*
X55593Y37425D01*
X55678Y37628D01*
X55706Y37846D01*
X55678Y38064D01*
X55593Y38267D01*
X55460Y38442D01*
X55285Y38575D01*
X55082Y38660D01*
X54864Y38688D01*
X54646Y38660D01*
X54443Y38575D01*
X54268Y38442D01*
X54135Y38267D01*
X54086Y38150D01*
X53409Y38148D01*
X53372Y38203D01*
X53205Y38315D01*
X53008Y38354D01*
X52174D01*
X52125Y38471D01*
X52228Y38574D01*
X53008D01*
X53205Y38614D01*
X53372Y38725D01*
X53484Y38892D01*
X53523Y39089D01*
X53484Y39286D01*
X53372Y39453D01*
X53205Y39565D01*
X53008Y39604D01*
X52364D01*
X52316Y39721D01*
X52419Y39824D01*
X53008D01*
X53205Y39864D01*
X53372Y39975D01*
X53484Y40142D01*
X53523Y40339D01*
X53484Y40536D01*
X53372Y40703D01*
X53205Y40815D01*
X53008Y40854D01*
X52364D01*
X52316Y40971D01*
X52419Y41074D01*
X53008D01*
X53205Y41114D01*
X53372Y41225D01*
X53484Y41392D01*
X53523Y41589D01*
X53484Y41786D01*
X53372Y41953D01*
X53205Y42065D01*
X53008Y42104D01*
X51916D01*
X51895Y42099D01*
X51832Y42217D01*
X51950Y42334D01*
X53008D01*
X53205Y42374D01*
X53372Y42485D01*
X53484Y42652D01*
X53523Y42849D01*
X53484Y43046D01*
X53372Y43213D01*
X53205Y43325D01*
X53008Y43364D01*
D02*
G37*
G36*
X44323Y42445D02*
X43604Y41727D01*
X43726Y41605D01*
X44920D01*
X45042Y41727D01*
X44323Y42445D01*
D02*
G37*
G36*
X43251Y43518D02*
X43129Y43396D01*
Y42202D01*
X43251Y42080D01*
X43969Y42799D01*
X43251Y43518D01*
D02*
G37*
G36*
Y40978D02*
X43129Y40856D01*
Y39662D01*
X43251Y39540D01*
X43969Y40259D01*
X43251Y40978D01*
D02*
G37*
G36*
X44323Y39905D02*
X43604Y39187D01*
X43726Y39065D01*
X44920D01*
X45042Y39187D01*
X44323Y39905D01*
D02*
G37*
G36*
X44920Y41453D02*
X43726D01*
X43604Y41331D01*
X44323Y40613D01*
X45042Y41331D01*
X44920Y41453D01*
D02*
G37*
G36*
X45395Y40978D02*
X44677Y40259D01*
X45395Y39540D01*
X45517Y39662D01*
Y40856D01*
X45395Y40978D01*
D02*
G37*
G36*
Y43518D02*
X44677Y42799D01*
X45395Y42080D01*
X45517Y42202D01*
Y43396D01*
X45395Y43518D01*
D02*
G37*
G36*
Y46058D02*
X44677Y45339D01*
X45395Y44620D01*
X45517Y44742D01*
Y45936D01*
X45395Y46058D01*
D02*
G37*
G36*
X49973Y46479D02*
X48833D01*
X48263Y45909D01*
Y44769D01*
X48833Y44199D01*
X49973D01*
X50543Y44769D01*
Y45030D01*
X51532D01*
X51552Y45000D01*
X51719Y44888D01*
X51916Y44849D01*
X53008D01*
X53205Y44888D01*
X53372Y45000D01*
X53484Y45167D01*
X53523Y45364D01*
X53484Y45561D01*
X53372Y45728D01*
X53205Y45839D01*
X53008Y45878D01*
X51916D01*
X51719Y45839D01*
X51552Y45728D01*
X51532Y45697D01*
X50543D01*
Y45909D01*
X49973Y46479D01*
D02*
G37*
G36*
X44920Y46533D02*
X43726D01*
X43604Y46411D01*
X44323Y45693D01*
X45042Y46411D01*
X44920Y46533D01*
D02*
G37*
G36*
X43251Y46058D02*
X43129Y45936D01*
Y44742D01*
X43251Y44620D01*
X43969Y45339D01*
X43251Y46058D01*
D02*
G37*
G36*
X44920Y43993D02*
X43726D01*
X43604Y43871D01*
X44323Y43153D01*
X45042Y43871D01*
X44920Y43993D01*
D02*
G37*
G36*
X53008Y44608D02*
X51916D01*
X51719Y44569D01*
X51552Y44458D01*
X51532Y44427D01*
X50698D01*
X50570Y44402D01*
X50462Y44329D01*
X50022Y43890D01*
X49973Y43939D01*
X48833D01*
X48263Y43369D01*
Y42229D01*
X48833Y41659D01*
X49973D01*
X50543Y42229D01*
Y43369D01*
X50494Y43418D01*
X50836Y43760D01*
X51532D01*
X51552Y43730D01*
X51719Y43618D01*
X51916Y43579D01*
X53008D01*
X53205Y43618D01*
X53372Y43730D01*
X53484Y43897D01*
X53523Y44094D01*
X53484Y44291D01*
X53372Y44458D01*
X53205Y44569D01*
X53008Y44608D01*
D02*
G37*
G36*
X44323Y44985D02*
X43604Y44267D01*
X43726Y44145D01*
X44920D01*
X45042Y44267D01*
X44323Y44985D01*
D02*
G37*
G36*
X44920Y38913D02*
X43726D01*
X43604Y38791D01*
X44323Y38073D01*
X45042Y38791D01*
X44920Y38913D01*
D02*
G37*
G36*
Y33833D02*
X43726D01*
X43604Y33711D01*
X44323Y32993D01*
X45042Y33711D01*
X44920Y33833D01*
D02*
G37*
G36*
X46863Y49089D02*
X46550Y49048D01*
X46479Y49019D01*
X46293D01*
X46016Y48741D01*
X46007Y48735D01*
X46001Y48726D01*
X45723Y48449D01*
Y48263D01*
X45694Y48192D01*
X45653Y47879D01*
Y45339D01*
X45694Y45026D01*
X45723Y44955D01*
Y44769D01*
X46001Y44492D01*
X46007Y44483D01*
X46016Y44477D01*
X46293Y44199D01*
X46479D01*
X46550Y44170D01*
X46773Y44141D01*
X46773D01*
X46830Y44133D01*
Y44132D01*
Y44128D01*
Y44121D01*
Y44017D01*
Y44010D01*
Y44006D01*
Y44005D01*
X46773Y43997D01*
D01*
X46550Y43968D01*
X46479Y43939D01*
X46293D01*
X46016Y43661D01*
X46007Y43655D01*
X46001Y43646D01*
X45723Y43369D01*
Y43183D01*
X45694Y43112D01*
X45653Y42799D01*
Y40259D01*
X45694Y39946D01*
X45723Y39875D01*
Y39689D01*
X46001Y39412D01*
X46007Y39403D01*
X46016Y39397D01*
X46293Y39119D01*
X46479D01*
X46550Y39090D01*
X46773Y39061D01*
X46773D01*
X46830Y39053D01*
Y39052D01*
Y39048D01*
Y39041D01*
Y38937D01*
Y38930D01*
Y38926D01*
Y38925D01*
X46773Y38917D01*
D01*
X46550Y38888D01*
X46479Y38859D01*
X46293D01*
X46016Y38581D01*
X46007Y38575D01*
X46001Y38566D01*
X45723Y38289D01*
Y38103D01*
X45694Y38032D01*
X45653Y37719D01*
Y35179D01*
X45694Y34866D01*
X45723Y34795D01*
Y34609D01*
X46001Y34332D01*
X46007Y34323D01*
X46016Y34317D01*
X46293Y34039D01*
X46479D01*
X46550Y34010D01*
X46863Y33969D01*
X47176Y34010D01*
X47247Y34039D01*
X47433D01*
X47710Y34317D01*
X47719Y34323D01*
X47725Y34332D01*
X48003Y34609D01*
Y34795D01*
X48032Y34866D01*
X48073Y35179D01*
Y37719D01*
X48032Y38032D01*
X48003Y38103D01*
Y38289D01*
X47725Y38566D01*
X47719Y38575D01*
X47710Y38581D01*
X47433Y38859D01*
X47247D01*
X47176Y38888D01*
X46953Y38917D01*
X46953D01*
X46896Y38925D01*
Y38926D01*
Y38930D01*
Y38937D01*
Y39041D01*
Y39048D01*
Y39052D01*
Y39053D01*
X46953Y39061D01*
D01*
X47176Y39090D01*
X47247Y39119D01*
X47433D01*
X47710Y39397D01*
X47719Y39403D01*
X47725Y39412D01*
X48003Y39689D01*
Y39875D01*
X48032Y39946D01*
X48073Y40259D01*
Y42799D01*
X48032Y43112D01*
X48003Y43183D01*
Y43369D01*
X47725Y43646D01*
X47719Y43655D01*
X47710Y43661D01*
X47433Y43939D01*
X47247D01*
X47176Y43968D01*
X46953Y43997D01*
X46953D01*
X46896Y44005D01*
Y44006D01*
Y44010D01*
Y44017D01*
Y44121D01*
Y44128D01*
Y44132D01*
Y44133D01*
X46953Y44141D01*
D01*
X47176Y44170D01*
X47247Y44199D01*
X47433D01*
X47710Y44477D01*
X47719Y44483D01*
X47725Y44492D01*
X48003Y44769D01*
Y44955D01*
X48032Y45026D01*
X48073Y45339D01*
Y47879D01*
X48032Y48192D01*
X48003Y48263D01*
Y48449D01*
X47725Y48726D01*
X47719Y48735D01*
X47710Y48741D01*
X47433Y49019D01*
X47247D01*
X47176Y49048D01*
X46863Y49089D01*
D02*
G37*
G36*
X44323Y34825D02*
X43604Y34107D01*
X43726Y33985D01*
X44920D01*
X45042Y34107D01*
X44323Y34825D01*
D02*
G37*
G36*
X45395Y33358D02*
X44677Y32639D01*
X45395Y31920D01*
X45517Y32042D01*
Y33236D01*
X45395Y33358D01*
D02*
G37*
G36*
X44323Y32285D02*
X43604Y31567D01*
X43726Y31445D01*
X44920D01*
X45042Y31567D01*
X44323Y32285D01*
D02*
G37*
G36*
X47433Y33779D02*
X46293D01*
X45723Y33209D01*
Y32069D01*
X46293Y31499D01*
X47433D01*
X48003Y32069D01*
Y33209D01*
X47433Y33779D01*
D02*
G37*
G36*
X43251Y33358D02*
X43129Y33236D01*
Y32042D01*
X43251Y31920D01*
X43969Y32639D01*
X43251Y33358D01*
D02*
G37*
G36*
X54024Y34972D02*
X53968Y34838D01*
X53942Y34639D01*
X53968Y34440D01*
X54024Y34306D01*
X54357Y34639D01*
X54024Y34972D01*
D02*
G37*
G36*
X44323Y37365D02*
X43604Y36647D01*
X43726Y36525D01*
X44920D01*
X45042Y36647D01*
X44323Y37365D01*
D02*
G37*
G36*
X43251Y38438D02*
X43129Y38316D01*
Y37122D01*
X43251Y37000D01*
X43969Y37719D01*
X43251Y38438D01*
D02*
G37*
G36*
X45395D02*
X44677Y37719D01*
X45395Y37000D01*
X45517Y37122D01*
Y38316D01*
X45395Y38438D01*
D02*
G37*
G36*
X53542Y36769D02*
X53362Y36589D01*
X53542Y36409D01*
X53578Y36589D01*
X53542Y36769D01*
D02*
G37*
G36*
X43251Y35898D02*
X43129Y35776D01*
Y34582D01*
X43251Y34460D01*
X43969Y35179D01*
X43251Y35898D01*
D02*
G37*
G36*
X45395D02*
X44677Y35179D01*
X45395Y34460D01*
X45517Y34582D01*
Y35776D01*
X45395Y35898D01*
D02*
G37*
G36*
X44920Y36373D02*
X43726D01*
X43604Y36251D01*
X44323Y35533D01*
X45042Y36251D01*
X44920Y36373D01*
D02*
G37*
G36*
X49973Y49019D02*
X48833D01*
X48263Y48449D01*
Y47309D01*
X48833Y46739D01*
X49973D01*
X50022Y46788D01*
X50457Y46353D01*
X50565Y46281D01*
X50693Y46256D01*
X51532D01*
X51552Y46225D01*
X51719Y46113D01*
X51916Y46074D01*
X53008D01*
X53205Y46113D01*
X53372Y46225D01*
X53484Y46392D01*
X53523Y46589D01*
X53484Y46786D01*
X53372Y46953D01*
X53205Y47064D01*
X53008Y47104D01*
X51916D01*
X51719Y47064D01*
X51552Y46953D01*
X51532Y46922D01*
X50831D01*
X50494Y47260D01*
X50543Y47309D01*
Y48449D01*
X49973Y49019D01*
D02*
G37*
G36*
X47433Y56639D02*
X46293D01*
X45723Y56069D01*
Y54929D01*
X46293Y54359D01*
X47433D01*
X48003Y54929D01*
Y56069D01*
X47433Y56639D01*
D02*
G37*
G36*
X43251Y56218D02*
X43129Y56096D01*
Y54902D01*
X43251Y54780D01*
X43969Y55499D01*
X43251Y56218D01*
D02*
G37*
G36*
X45395D02*
X44677Y55499D01*
X45395Y54780D01*
X45517Y54902D01*
Y56096D01*
X45395Y56218D01*
D02*
G37*
G36*
X44323Y55145D02*
X43604Y54427D01*
X43726Y54305D01*
X44920D01*
X45042Y54427D01*
X44323Y55145D01*
D02*
G37*
G36*
X44920Y54153D02*
X43726D01*
X43604Y54031D01*
X44323Y53313D01*
X45042Y54031D01*
X44920Y54153D01*
D02*
G37*
G36*
X49973Y59179D02*
X48833D01*
X48263Y58609D01*
Y57469D01*
X48833Y56899D01*
X49973D01*
X50042Y56968D01*
X51005Y56004D01*
Y53956D01*
X50878Y53904D01*
X50198Y54584D01*
X50543Y54929D01*
Y56069D01*
X49973Y56639D01*
X48833D01*
X48263Y56069D01*
Y54929D01*
X48833Y54359D01*
X49480D01*
X49623Y54216D01*
X49574Y54099D01*
X48833D01*
X48263Y53529D01*
Y52389D01*
X48833Y51819D01*
X49480D01*
X49623Y51676D01*
X49574Y51559D01*
X48833D01*
X48263Y50989D01*
Y49849D01*
X48833Y49279D01*
X49973D01*
X50022Y49328D01*
X51420Y47931D01*
X51401Y47839D01*
X51440Y47642D01*
X51552Y47475D01*
X51719Y47363D01*
X51916Y47324D01*
X53008D01*
X53205Y47363D01*
X53372Y47475D01*
X53484Y47642D01*
X53523Y47839D01*
X53484Y48036D01*
X53372Y48203D01*
X53205Y48314D01*
X53008Y48354D01*
X51940D01*
X51832Y48461D01*
X51895Y48578D01*
X51916Y48574D01*
X53008D01*
X53205Y48613D01*
X53372Y48725D01*
X53484Y48892D01*
X53523Y49089D01*
X53484Y49286D01*
X53372Y49453D01*
X53205Y49564D01*
X53008Y49604D01*
X52419D01*
X52306Y49717D01*
X52354Y49834D01*
X53008D01*
X53205Y49873D01*
X53372Y49985D01*
X53484Y50152D01*
X53523Y50349D01*
X53484Y50546D01*
X53372Y50713D01*
X53205Y50824D01*
X53008Y50864D01*
X52419D01*
X52321Y50962D01*
X52370Y51079D01*
X53008D01*
X53205Y51118D01*
X53372Y51230D01*
X53484Y51397D01*
X53523Y51594D01*
X53484Y51791D01*
X53372Y51958D01*
X53205Y52069D01*
X53008Y52108D01*
X52248D01*
X52125Y52232D01*
X52174Y52349D01*
X53008D01*
X53205Y52388D01*
X53372Y52500D01*
X53399Y52540D01*
X54096Y52526D01*
X54099Y52527D01*
X54102Y52526D01*
X54158Y52537D01*
X54214Y52547D01*
X54216Y52549D01*
X54219Y52549D01*
X54266Y52581D01*
X54314Y52612D01*
X54316Y52614D01*
X54318Y52616D01*
X54531Y52828D01*
X54646Y52780D01*
X54864Y52752D01*
X55082Y52780D01*
X55285Y52865D01*
X55460Y52998D01*
X55593Y53173D01*
X55678Y53376D01*
X55706Y53594D01*
X55678Y53812D01*
X55593Y54015D01*
X55460Y54190D01*
X55285Y54323D01*
X55082Y54408D01*
X54864Y54436D01*
X54646Y54408D01*
X54443Y54323D01*
X54268Y54190D01*
X54135Y54015D01*
X54050Y53812D01*
X54022Y53594D01*
X54050Y53376D01*
X54098Y53261D01*
X53978Y53140D01*
X53423Y53151D01*
X53372Y53228D01*
X53205Y53339D01*
X53008Y53378D01*
X51916D01*
X51782Y53352D01*
X51668Y53434D01*
X51667Y53483D01*
X51777Y53566D01*
X51916Y53538D01*
X53008D01*
X53188Y53574D01*
X52831Y53931D01*
X53008Y54108D01*
X52831Y54285D01*
X53188Y54642D01*
X53008Y54678D01*
X51916D01*
X51744Y54644D01*
X51617Y54722D01*
Y56131D01*
X51617Y56131D01*
X51594Y56248D01*
X51527Y56347D01*
X50474Y57400D01*
X50543Y57469D01*
Y58609D01*
X49973Y59179D01*
D02*
G37*
G36*
X53542Y54288D02*
X53362Y54108D01*
X53542Y53928D01*
X53578Y54108D01*
X53542Y54288D01*
D02*
G37*
G36*
X54024Y56397D02*
X53968Y56263D01*
X53942Y56064D01*
X53968Y55865D01*
X54024Y55731D01*
X54357Y56064D01*
X54024Y56397D01*
D02*
G37*
G36*
X45395Y58758D02*
X44677Y58039D01*
X45395Y57320D01*
X45517Y57442D01*
Y58636D01*
X45395Y58758D01*
D02*
G37*
G36*
X56334Y59724D02*
X51695D01*
Y58093D01*
X56334D01*
Y59724D01*
D02*
G37*
G36*
X44920Y59233D02*
X43726D01*
X43604Y59111D01*
X44323Y58393D01*
X45042Y59111D01*
X44920Y59233D01*
D02*
G37*
G36*
X43251Y58758D02*
X43129Y58636D01*
Y57442D01*
X43251Y57320D01*
X43969Y58039D01*
X43251Y58758D01*
D02*
G37*
G36*
X44920Y56693D02*
X43726D01*
X43604Y56571D01*
X44323Y55853D01*
X45042Y56571D01*
X44920Y56693D01*
D02*
G37*
G36*
X44323Y57685D02*
X43604Y56967D01*
X43726Y56845D01*
X44920D01*
X45042Y56967D01*
X44323Y57685D01*
D02*
G37*
G36*
X47433Y59179D02*
X46293D01*
X45723Y58609D01*
Y57469D01*
X46293Y56899D01*
X47433D01*
X48003Y57469D01*
Y58609D01*
X47433Y59179D01*
D02*
G37*
G36*
X45395Y53678D02*
X44677Y52959D01*
X45395Y52240D01*
X45517Y52362D01*
Y53556D01*
X45395Y53678D01*
D02*
G37*
G36*
X44323Y50065D02*
X43604Y49347D01*
X43726Y49225D01*
X44920D01*
X45042Y49347D01*
X44323Y50065D01*
D02*
G37*
G36*
X46863Y54169D02*
X46550Y54128D01*
X46479Y54099D01*
X46293D01*
X46016Y53821D01*
X46007Y53815D01*
X46001Y53806D01*
X45723Y53529D01*
Y53343D01*
X45694Y53272D01*
X45653Y52959D01*
Y51435D01*
X45694Y51122D01*
X45741Y51007D01*
X45723Y50989D01*
Y49849D01*
X46293Y49279D01*
X47433D01*
X48003Y49849D01*
Y50989D01*
X47985Y51007D01*
X48032Y51122D01*
X48073Y51435D01*
Y52959D01*
X48032Y53272D01*
X48003Y53343D01*
Y53529D01*
X47725Y53806D01*
X47719Y53815D01*
X47710Y53821D01*
X47433Y54099D01*
X47247D01*
X47176Y54128D01*
X46863Y54169D01*
D02*
G37*
G36*
X43251Y51138D02*
X43129Y51016D01*
Y49822D01*
X43251Y49700D01*
X43969Y50419D01*
X43251Y51138D01*
D02*
G37*
G36*
X44920Y49073D02*
X43726D01*
X43604Y48951D01*
X44323Y48233D01*
X45042Y48951D01*
X44920Y49073D01*
D02*
G37*
G36*
X44323Y47525D02*
X43604Y46807D01*
X43726Y46685D01*
X44920D01*
X45042Y46807D01*
X44323Y47525D01*
D02*
G37*
G36*
X43251Y48598D02*
X43129Y48476D01*
Y47282D01*
X43251Y47160D01*
X43969Y47879D01*
X43251Y48598D01*
D02*
G37*
G36*
X45395D02*
X44677Y47879D01*
X45395Y47160D01*
X45517Y47282D01*
Y48476D01*
X45395Y48598D01*
D02*
G37*
G36*
Y51138D02*
X44677Y50419D01*
X45395Y49700D01*
X45517Y49822D01*
Y51016D01*
X45395Y51138D01*
D02*
G37*
G36*
X44323Y52605D02*
X43604Y51887D01*
X43726Y51765D01*
X44920D01*
X45042Y51887D01*
X44323Y52605D01*
D02*
G37*
G36*
X54864Y52332D02*
X54632Y52301D01*
X54434Y52219D01*
X54864Y51789D01*
X55294Y52219D01*
X55096Y52301D01*
X54864Y52332D01*
D02*
G37*
G36*
X43251Y53678D02*
X43129Y53556D01*
Y52362D01*
X43251Y52240D01*
X43969Y52959D01*
X43251Y53678D01*
D02*
G37*
G36*
X55648Y51865D02*
X55218Y51435D01*
X55648Y51005D01*
X55730Y51203D01*
X55761Y51435D01*
X55730Y51667D01*
X55648Y51865D01*
D02*
G37*
G36*
X54864Y51081D02*
X54434Y50651D01*
X54632Y50569D01*
X54864Y50538D01*
X55096Y50569D01*
X55294Y50651D01*
X54864Y51081D01*
D02*
G37*
G36*
X44920Y51613D02*
X43726D01*
X43604Y51491D01*
X44323Y50773D01*
X45042Y51491D01*
X44920Y51613D01*
D02*
G37*
G36*
X54080Y51865D02*
X53998Y51667D01*
X53967Y51435D01*
X53998Y51203D01*
X54080Y51005D01*
X54510Y51435D01*
X54080Y51865D01*
D02*
G37*
%LPD*%
G36*
X56007Y58420D02*
X55877D01*
Y58853D01*
X55711D01*
X55695Y58851D01*
X55684D01*
X55674Y58850D01*
X55667Y58849D01*
X55662D01*
X55659Y58847D01*
X55657D01*
X55635Y58840D01*
X55625Y58836D01*
X55617Y58832D01*
X55608Y58827D01*
X55602Y58825D01*
X55600Y58823D01*
X55598Y58822D01*
X55587Y58813D01*
X55576Y58803D01*
X55554Y58782D01*
X55545Y58772D01*
X55538Y58764D01*
X55533Y58758D01*
X55532Y58757D01*
X55518Y58737D01*
X55502Y58716D01*
X55487Y58693D01*
X55471Y58672D01*
X55459Y58653D01*
X55449Y58637D01*
X55445Y58631D01*
X55442Y58627D01*
X55439Y58624D01*
Y58623D01*
X55311Y58420D01*
X55150D01*
X55318Y58685D01*
X55337Y58713D01*
X55356Y58739D01*
X55374Y58760D01*
X55390Y58779D01*
X55404Y58794D01*
X55415Y58805D01*
X55422Y58812D01*
X55425Y58815D01*
X55436Y58823D01*
X55449Y58833D01*
X55474Y58849D01*
X55485Y58854D01*
X55494Y58860D01*
X55500Y58863D01*
X55502Y58864D01*
X55477Y58868D01*
X55453Y58873D01*
X55432Y58880D01*
X55411Y58885D01*
X55392Y58892D01*
X55375Y58901D01*
X55360Y58908D01*
X55346Y58915D01*
X55335Y58923D01*
X55323Y58930D01*
X55315Y58936D01*
X55308Y58942D01*
X55302Y58946D01*
X55298Y58950D01*
X55297Y58951D01*
X55295Y58953D01*
X55284Y58967D01*
X55273Y58981D01*
X55256Y59011D01*
X55244Y59040D01*
X55236Y59068D01*
X55230Y59092D01*
X55229Y59102D01*
Y59112D01*
X55227Y59119D01*
Y59125D01*
Y59128D01*
Y59129D01*
X55229Y59159D01*
X55233Y59185D01*
X55240Y59211D01*
X55247Y59232D01*
X55256Y59250D01*
X55261Y59264D01*
X55267Y59273D01*
X55268Y59274D01*
Y59276D01*
X55285Y59298D01*
X55302Y59318D01*
X55320Y59335D01*
X55337Y59348D01*
X55353Y59357D01*
X55366Y59363D01*
X55374Y59367D01*
X55375Y59369D01*
X55377D01*
X55390Y59373D01*
X55405Y59377D01*
X55436Y59384D01*
X55470Y59388D01*
X55501Y59393D01*
X55531Y59394D01*
X55543D01*
X55554Y59396D01*
X56007D01*
Y58420D01*
D02*
G37*
G36*
X53839D02*
X53704D01*
X53323Y59396D01*
X53454D01*
X53719Y58686D01*
X53730Y58657D01*
X53740Y58629D01*
X53749Y58602D01*
X53756Y58578D01*
X53763Y58557D01*
X53767Y58541D01*
X53768Y58536D01*
X53770Y58531D01*
X53771Y58529D01*
Y58527D01*
X53788Y58584D01*
X53797Y58610D01*
X53805Y58634D01*
X53812Y58655D01*
X53815Y58664D01*
X53816Y58672D01*
X53819Y58678D01*
X53821Y58682D01*
X53822Y58685D01*
Y58686D01*
X54076Y59396D01*
X54217D01*
X53839Y58420D01*
D02*
G37*
G36*
X52832D02*
X52460D01*
X52426Y58421D01*
X52397Y58423D01*
X52370Y58426D01*
X52347Y58428D01*
X52329Y58431D01*
X52315Y58433D01*
X52307Y58436D01*
X52304D01*
X52280Y58443D01*
X52260Y58450D01*
X52242Y58458D01*
X52226Y58467D01*
X52214Y58472D01*
X52204Y58478D01*
X52198Y58482D01*
X52197Y58483D01*
X52181Y58496D01*
X52167Y58512D01*
X52156Y58527D01*
X52144Y58541D01*
X52136Y58555D01*
X52130Y58565D01*
X52126Y58572D01*
X52125Y58575D01*
X52115Y58598D01*
X52108Y58620D01*
X52102Y58641D01*
X52099Y58661D01*
X52096Y58678D01*
X52095Y58692D01*
Y58701D01*
Y58702D01*
Y58703D01*
X52096Y58734D01*
X52102Y58763D01*
X52111Y58787D01*
X52119Y58809D01*
X52128Y58826D01*
X52136Y58839D01*
X52142Y58847D01*
X52143Y58850D01*
X52163Y58873D01*
X52184Y58891D01*
X52208Y58906D01*
X52229Y58919D01*
X52249Y58929D01*
X52266Y58935D01*
X52271Y58937D01*
X52276Y58939D01*
X52278Y58940D01*
X52280D01*
X52256Y58954D01*
X52235Y58968D01*
X52218Y58984D01*
X52204Y58998D01*
X52192Y59009D01*
X52184Y59021D01*
X52180Y59026D01*
X52178Y59029D01*
X52167Y59050D01*
X52159Y59070D01*
X52151Y59090D01*
X52147Y59108D01*
X52144Y59123D01*
X52143Y59136D01*
Y59143D01*
Y59146D01*
X52144Y59170D01*
X52149Y59194D01*
X52156Y59215D01*
X52163Y59235D01*
X52170Y59252D01*
X52177Y59263D01*
X52181Y59271D01*
X52182Y59274D01*
X52198Y59295D01*
X52215Y59315D01*
X52233Y59331D01*
X52250Y59343D01*
X52264Y59353D01*
X52277Y59360D01*
X52285Y59364D01*
X52287Y59366D01*
X52288D01*
X52315Y59376D01*
X52345Y59383D01*
X52374Y59388D01*
X52402Y59391D01*
X52428Y59394D01*
X52439D01*
X52449Y59396D01*
X52832D01*
Y58420D01*
D02*
G37*
G36*
X55023D02*
X54294D01*
Y58536D01*
X54893D01*
Y58867D01*
X54353D01*
Y58982D01*
X54893D01*
Y59280D01*
X54317D01*
Y59396D01*
X55023D01*
Y58420D01*
D02*
G37*
%LPC*%
G36*
X52703Y59280D02*
X52471D01*
X52440Y59277D01*
X52416Y59276D01*
X52395Y59273D01*
X52380Y59270D01*
X52370Y59269D01*
X52363Y59266D01*
X52362D01*
X52346Y59260D01*
X52332Y59252D01*
X52321Y59243D01*
X52311Y59235D01*
X52304Y59228D01*
X52298Y59221D01*
X52295Y59216D01*
X52294Y59215D01*
X52285Y59201D01*
X52280Y59187D01*
X52276Y59173D01*
X52273Y59159D01*
X52271Y59147D01*
X52270Y59139D01*
Y59133D01*
Y59130D01*
X52271Y59112D01*
X52274Y59095D01*
X52278Y59081D01*
X52283Y59070D01*
X52287Y59060D01*
X52291Y59052D01*
X52294Y59047D01*
X52295Y59046D01*
X52305Y59035D01*
X52318Y59023D01*
X52331Y59015D01*
X52342Y59009D01*
X52353Y59004D01*
X52362Y58999D01*
X52367Y58998D01*
X52370Y58997D01*
X52385Y58994D01*
X52405Y58991D01*
X52425Y58990D01*
X52445Y58988D01*
X52463Y58987D01*
X52703D01*
Y59280D01*
D02*
G37*
G36*
X55877Y59287D02*
X55570D01*
X55532Y59286D01*
X55500Y59280D01*
X55471Y59273D01*
X55450Y59264D01*
X55432Y59256D01*
X55421Y59249D01*
X55414Y59243D01*
X55411Y59242D01*
X55394Y59224D01*
X55381Y59205D01*
X55373Y59185D01*
X55366Y59169D01*
X55363Y59152D01*
X55361Y59139D01*
X55360Y59130D01*
Y59129D01*
Y59128D01*
X55361Y59111D01*
X55364Y59094D01*
X55368Y59080D01*
X55373Y59067D01*
X55378Y59056D01*
X55382Y59047D01*
X55385Y59042D01*
X55387Y59040D01*
X55397Y59026D01*
X55409Y59013D01*
X55422Y59004D01*
X55435Y58995D01*
X55446Y58990D01*
X55454Y58985D01*
X55460Y58982D01*
X55463Y58981D01*
X55483Y58975D01*
X55505Y58971D01*
X55528Y58968D01*
X55550Y58967D01*
X55570Y58966D01*
X55587Y58964D01*
X55877D01*
Y59287D01*
D02*
G37*
G36*
X52703Y58871D02*
X52446D01*
X52416Y58868D01*
X52393Y58865D01*
X52373Y58863D01*
X52357Y58860D01*
X52345Y58857D01*
X52339Y58856D01*
X52336Y58854D01*
X52318Y58847D01*
X52302Y58839D01*
X52288Y58829D01*
X52277Y58819D01*
X52268Y58810D01*
X52263Y58803D01*
X52259Y58798D01*
X52257Y58796D01*
X52247Y58781D01*
X52240Y58765D01*
X52235Y58750D01*
X52232Y58736D01*
X52229Y58723D01*
X52228Y58712D01*
Y58706D01*
Y58703D01*
X52229Y58686D01*
X52230Y58670D01*
X52233Y58655D01*
X52237Y58644D01*
X52242Y58634D01*
X52245Y58626D01*
X52246Y58622D01*
X52247Y58620D01*
X52256Y58607D01*
X52263Y58596D01*
X52273Y58588D01*
X52280Y58579D01*
X52287Y58574D01*
X52292Y58569D01*
X52297Y58567D01*
X52298Y58565D01*
X52322Y58554D01*
X52346Y58545D01*
X52356Y58543D01*
X52364Y58541D01*
X52370Y58540D01*
X52371D01*
X52383Y58538D01*
X52395Y58537D01*
X52425Y58536D01*
X52703D01*
Y58871D01*
D02*
G37*
%LPD*%
D10*
X51311Y34547D02*
Y38090D01*
X49403Y32639D02*
X51311Y34547D01*
X52311Y39089D02*
X52462D01*
X51311Y38090D02*
X52311Y39089D01*
X52462Y37839D02*
X54864Y37846D01*
X52462Y54108D02*
X55612Y56064D01*
X52462Y52864D02*
X54102Y52832D01*
X49403Y58039D02*
X51311Y56131D01*
X52331Y51594D02*
X52462D01*
X51311Y52613D02*
Y56131D01*
Y52613D02*
X52331Y51594D01*
X54102Y52832D02*
X54864Y53594D01*
X55612Y54168D02*
Y56064D01*
Y54168D02*
X55799Y53981D01*
X55612Y37272D02*
X55799Y37459D01*
X55612Y34639D02*
Y37272D01*
X52462Y36589D02*
X55612Y34639D01*
X55799Y37459D02*
Y52497D01*
Y53981D01*
X54800Y51499D02*
X55799Y52497D01*
D11*
X46863Y51435D02*
Y52959D01*
Y45339D02*
Y47879D01*
Y40259D02*
Y42799D01*
Y35179D02*
Y37719D01*
D13*
X44323Y58039D02*
D03*
X46863D02*
D03*
X49403D02*
D03*
X44323Y55499D02*
D03*
X46863D02*
D03*
X49403D02*
D03*
X44323Y52959D02*
D03*
X46863D02*
D03*
X49403D02*
D03*
X44323Y50419D02*
D03*
X46863D02*
D03*
X49403D02*
D03*
X44323Y47879D02*
D03*
X46863D02*
D03*
X49403D02*
D03*
X44323Y45339D02*
D03*
X46863D02*
D03*
X49403D02*
D03*
X44323Y42799D02*
D03*
X46863D02*
D03*
X49403D02*
D03*
X44323Y40259D02*
D03*
X46863D02*
D03*
X49403D02*
D03*
X44323Y37719D02*
D03*
X46863D02*
D03*
X49403D02*
D03*
X44323Y35179D02*
D03*
X46863D02*
D03*
X49403D02*
D03*
Y32639D02*
D03*
X46863D02*
D03*
X44323D02*
D03*
D14*
X54864Y51435D02*
D03*
Y37846D02*
D03*
Y53594D02*
D03*
D15*
X55612Y34639D02*
D03*
Y56064D02*
D03*
D16*
X52462Y36589D02*
D03*
Y39089D02*
D03*
Y40339D02*
D03*
Y41589D02*
D03*
Y42849D02*
D03*
Y44094D02*
D03*
Y45364D02*
D03*
Y37839D02*
D03*
Y54108D02*
D03*
Y52864D02*
D03*
Y51594D02*
D03*
Y50349D02*
D03*
Y49089D02*
D03*
Y47839D02*
D03*
Y46589D02*
D03*
D17*
X51898Y39775D02*
X52462Y40339D01*
X51632Y39775D02*
X51898D01*
Y41025D02*
X52462Y41589D01*
X51632Y41025D02*
X51898D01*
X49403Y38310D02*
X50724Y39631D01*
Y40117D02*
X51632Y41025D01*
X50724Y39631D02*
Y40117D01*
X49403Y37719D02*
Y38310D01*
X50698Y44094D02*
X52462D01*
X49403Y42799D02*
X50698Y44094D01*
X49428Y45364D02*
X52462D01*
X49403Y45339D02*
X49428Y45364D01*
X50693Y46589D02*
X52462D01*
X49403Y47879D02*
X50693Y46589D01*
X51983Y47839D02*
X52462D01*
X49403Y50419D02*
X51983Y47839D01*
X51888Y49663D02*
X52462Y49089D01*
X51632Y49663D02*
X51888D01*
X50724Y50571D02*
X51632Y49663D01*
X49403Y52368D02*
Y52959D01*
Y52368D02*
X50724Y51047D01*
Y50571D02*
Y51047D01*
X49403Y54908D02*
Y55499D01*
X50673Y38816D02*
X51632Y39775D01*
X49403Y35179D02*
X50673Y36449D01*
Y38816D01*
X51903Y50908D02*
X52462Y50349D01*
X51632Y50908D02*
X51903D01*
X49403Y54908D02*
X50724Y53587D01*
Y51816D02*
X51632Y50908D01*
X50724Y51816D02*
Y53587D01*
X49403Y40259D02*
X51993Y42849D01*
X52462D01*
M02*
