M48
;Layer_Color=9474304
;FILE_FORMAT=2:5
INCH,LZ
;TYPE=PLATED
T1F00S00C0.02800
T2F00S00C0.04000
%
T01
X0216Y0149
Y02025
Y0211
T02
X01745Y01285
Y01385
Y01485
X01845
X01945
Y01385
X01845
Y01285
X01945
Y01585
Y01685
Y01785
Y01885
Y01985
Y02085
Y02185
Y02285
X01845
X01745
Y02185
X01845
Y02085
X01745
Y01985
X01845
Y01885
X01745
Y01785
X01845
Y01685
X01745
Y01585
X01845
M30
